<svg id="Layer_1" data-name="Layer 1" xmlns="http://www.w3.org/2000/svg" viewBox="0 0 712.48 154"><defs><style>.cls-1{fill:#808184;}.cls-2{fill:#e8282a;}</style></defs><title>LM product logo PNG</title><path class="cls-1" d="M148.13,112.15V88.52H141.7V82.46h6.43V60.27h6.94V82.46h11.66v6.06H155.07v23.73c0,5.65,1.91,7.4,4.93,7.4a7.53,7.53,0,0,0,5.63-2.47l3.82,4.52a13.4,13.4,0,0,1-10.16,4.21C153,125.91,148.13,122.21,148.13,112.15Z"/><path class="cls-1" d="M198.91,119.75a16.87,16.87,0,0,0,13.17-5.65l4.32,4.31c-3.82,4.42-9.35,7.4-17.49,7.4-13.67,0-22.52-9.66-22.52-22.09s9.35-22.18,21.51-22.18c13.38,0,21.42,10.48,20.92,24.55H183.43C184.33,114.2,189.76,119.75,198.91,119.75Zm12.87-19.11c-.6-7.29-5.13-13-13.88-13-7.94,0-13.27,5.24-14.37,13Z"/><path class="cls-1" d="M230.88,82.46h7l-.2,8.73a15.91,15.91,0,0,1,15-9.65c9.25,0,15.58,6.47,15.58,17.56V125h-7V99.92c0-7.49-3.41-11.81-10.35-11.81-7.74,0-13,5-13,13.46V125h-7Z"/><path class="cls-1" d="M280.15,103.62c0-12.63,8.84-22.08,20.1-22.08,7.95,0,13,4,16,9.65V50.82h6.94V125h-6.94l.2-9.14a17.47,17.47,0,0,1-16.08,10C289,125.81,280.15,116.36,280.15,103.62Zm36.39,0c0-9.14-5.93-15.71-14.78-15.71s-14.37,6.57-14.37,15.71,5.63,15.92,14.37,15.92S316.54,112.87,316.54,103.62Z"/><path class="cls-1" d="M358.07,119.75a16.87,16.87,0,0,0,13.17-5.65l4.32,4.31c-3.82,4.42-9.35,7.4-17.49,7.4-13.68,0-22.52-9.66-22.52-22.09s9.35-22.18,21.51-22.18c13.37,0,21.42,10.48,20.91,24.55H342.58C343.49,114.2,348.92,119.75,358.07,119.75Zm12.87-19.11c-.61-7.29-5.13-13-13.88-13-7.94,0-13.27,5.24-14.38,13Z"/><path class="cls-1" d="M390,82.46h7l-.21,8.32c2.62-6.47,7.24-9.14,12.17-9.14a12,12,0,0,1,7.24,2L413.57,90a9.56,9.56,0,0,0-5.74-1.64c-5.93,0-10.75,4.31-10.75,14.28V125h-7Z"/><path class="cls-1" d="M421.11,116l5.43-3.18c2.41,4.1,6,7.18,12.06,7.18,5.63,0,8.85-2.46,8.85-6.36,0-4.63-3.62-5.65-10.86-7.81-6.54-2-12.57-4.62-12.57-12.64,0-7.39,6-11.6,13.68-11.6,6.33,0,10.95,2.67,13.87,6.88l-4.83,3.8a10.58,10.58,0,0,0-9-4.83c-4.53,0-7.24,2.16-7.24,5.45,0,4,2.51,5.13,9.85,7.29,7,2,13.77,4.83,13.77,13.05,0,7.19-4.72,12.63-15.18,12.63C429.75,125.81,423.82,121.29,421.11,116Z"/><path class="cls-1" d="M486.06,119.75a16.87,16.87,0,0,0,13.17-5.65l4.32,4.31c-3.82,4.42-9.35,7.4-17.49,7.4-13.68,0-22.53-9.66-22.53-22.09s9.35-22.18,21.52-22.18c13.37,0,21.42,10.48,20.91,24.55H470.57C471.48,114.2,476.91,119.75,486.06,119.75Zm12.86-19.11c-.6-7.29-5.12-13-13.87-13-7.94,0-13.27,5.24-14.38,13Z"/><path class="cls-1" d="M543.36,99c0-8.22-3.62-11.4-9.75-11.4a14.12,14.12,0,0,0-12.16,6.16l-4.33-4c3.62-5,9-8.22,17-8.22,9.25,0,16.29,5.54,16.29,17.36V125h-7l.31-6.37c-2.82,4.31-7.14,7.19-13.78,7.19-8.85,0-15.28-4.11-15.28-12.94s7-12.84,15.79-12.84h13Zm-12.46,6.47c-5.33,0-9.45,2-9.45,7.09,0,4.83,3.52,7.39,10,7.39s11.86-3.59,11.86-9.14v-5.34Z"/><path class="cls-1" d="M564.88,82.46h7l-.2,8.32c2.61-6.47,7.24-9.14,12.16-9.14a12,12,0,0,1,7.24,2L588.41,90a9.55,9.55,0,0,0-5.73-1.64c-5.94,0-10.76,4.31-10.76,14.28V125h-7Z"/><path class="cls-1" d="M597.16,103.72c0-12.43,9.35-22.18,21.61-22.18,7.44,0,12.57,2.87,16.39,7.6l-5,4.21c-2.51-3.39-6.13-5.44-11.36-5.44-8.85,0-14.38,6.78-14.38,15.81s5.53,15.82,14.38,15.82a14.53,14.53,0,0,0,12-5.54l4.82,4.21c-3.92,4.83-9,7.6-16.79,7.6C606.51,125.81,597.16,116.15,597.16,103.72Z"/><path class="cls-1" d="M646.72,50.82h7v40a15.81,15.81,0,0,1,14.78-9.24c9.25,0,15.58,6.47,15.58,17.56V125h-7V99.92c0-7.49-3.41-11.81-10.35-11.81-7.74,0-13,5-13,13.46V125h-7Z"/><path class="cls-2" d="M120.09,73.9H84.18a15.1,15.1,0,1,0,.51,12.73h8.53a23.32,23.32,0,1,1-6.9-23.15h16A36.12,36.12,0,0,0,77.11,45.34v-14H64.38v14a36.1,36.1,0,0,0-29,28.61h-14V86.63H35.19a36.07,36.07,0,0,0,29.19,29.55v13.95H77.11v-14a36.07,36.07,0,0,0,29.1-29.54h13.88Z"/></svg>